<svg width="14" height="25" viewBox="0 0 14 25" fill="none" xmlns="http://www.w3.org/2000/svg">
<path d="M1.61491 12.5058L1.96847 12.1522L12.8323 1.28837C12.8323 1.28836 12.8323 1.28835 12.8323 1.28834C13.0127 1.10796 13.0127 0.815532 12.8323 0.635166C12.6519 0.454913 12.3595 0.454969 12.1792 0.635192L1.61491 12.5058ZM1.61491 12.5058L1.96847 12.8593L12.8287 23.7196C12.9991 23.8987 12.9983 24.1807 12.8262 24.3589C12.6498 24.5416 12.3593 24.5475 12.1756 24.3727L0.635245 12.8324C0.454936 12.652 0.454918 12.3596 0.635192 12.1792C0.63521 12.1792 0.635228 12.1792 0.635245 12.1792L12.1791 0.635245L1.61491 12.5058Z" stroke="black" stroke-opacity="0.9"/>
</svg>
