<svg width="40" height="40" viewBox="0 0 40 40" fill="none" xmlns="http://www.w3.org/2000/svg">
<path d="M30.3146 38.919H9.68537C9.27117 38.9167 8.8727 38.7601 8.56782 38.4797C8.26295 38.1993 8.07358 37.8153 8.03672 37.4027L5.67997 9.26168C5.67375 9.18701 5.68312 9.11187 5.70748 9.04102C5.73185 8.97017 5.77068 8.90516 5.82151 8.85011C5.87233 8.79506 5.93405 8.75119 6.00274 8.72126C6.07142 8.69133 6.14558 8.67601 6.22051 8.67627H33.7838C33.8587 8.67601 33.9328 8.69133 34.0015 8.72126C34.0702 8.75119 34.1319 8.79506 34.1828 8.85011C34.2336 8.90516 34.2724 8.97017 34.2968 9.04102C34.3211 9.11187 34.3305 9.18701 34.3243 9.26168L31.9675 37.4027C31.9306 37.816 31.7406 38.2007 31.4348 38.4811C31.129 38.7616 30.7295 38.9178 30.3146 38.919V38.919ZM6.80645 9.75735L9.11456 37.3125C9.12721 37.4554 9.19273 37.5885 9.2983 37.6856C9.40387 37.7828 9.54189 37.8371 9.68537 37.8379H30.3146C30.4581 37.8372 30.5963 37.783 30.702 37.6858C30.8077 37.5886 30.8733 37.4555 30.8859 37.3125L33.194 9.75735H6.80645Z" fill="black" fill-opacity="0.9"/>
<path d="M35.7687 9.76215H4.23141C3.92088 9.76172 3.62319 9.63817 3.40361 9.41859C3.18404 9.19902 3.06049 8.90133 3.06006 8.5908V5.86593C3.06034 5.55536 3.18385 5.25759 3.40346 5.03798C3.62306 4.81837 3.92084 4.69487 4.23141 4.69458H35.7687C36.0793 4.69487 36.3771 4.81837 36.5967 5.03798C36.8163 5.25759 36.9398 5.55536 36.9401 5.86593V8.59134C36.9395 8.90177 36.8159 9.19932 36.5963 9.41878C36.3768 9.63825 36.0791 9.76172 35.7687 9.76215ZM4.23141 5.77566C4.20747 5.77566 4.18451 5.78517 4.16758 5.8021C4.15065 5.81903 4.14114 5.84199 4.14114 5.86593V8.59134C4.14114 8.61528 4.15065 8.63824 4.16758 8.65517C4.18451 8.6721 4.20747 8.68161 4.23141 8.68161H35.7687C35.7926 8.68161 35.8156 8.6721 35.8325 8.65517C35.8495 8.63824 35.859 8.61528 35.859 8.59134V5.86593C35.859 5.84199 35.8495 5.81903 35.8325 5.8021C35.8156 5.78517 35.7926 5.77566 35.7687 5.77566H4.23141Z" fill="black" fill-opacity="0.9"/>
<path d="M24.7632 5.77565H15.2367C15.0933 5.77565 14.9559 5.7187 14.8545 5.61733C14.7531 5.51596 14.6962 5.37847 14.6962 5.23511V2.49619C14.6966 2.121 14.8458 1.76131 15.1111 1.49601C15.3764 1.23072 15.7361 1.08148 16.1113 1.08105H23.8886C24.2638 1.08148 24.6235 1.23072 24.8888 1.49601C25.1541 1.76131 25.3033 2.121 25.3037 2.49619V5.23511C25.3037 5.37847 25.2468 5.51596 25.1454 5.61733C25.0441 5.7187 24.9066 5.77565 24.7632 5.77565ZM15.7772 4.69457H24.2227V2.49619C24.2227 2.40759 24.1875 2.32263 24.1248 2.25998C24.0622 2.19733 23.9772 2.16214 23.8886 2.16214H16.1113C16.0227 2.16214 15.9377 2.19733 15.8751 2.25998C15.8124 2.32263 15.7772 2.40759 15.7772 2.49619V4.69457Z" fill="black" fill-opacity="0.9"/>
<path d="M25.6551 30.2865C25.6394 30.2865 25.6232 30.2865 25.6075 30.2865C25.4648 30.274 25.3328 30.2053 25.2406 30.0955C25.1485 29.9858 25.1037 29.8439 25.1162 29.7011L26.3535 15.5762C26.3585 15.5046 26.3777 15.4347 26.41 15.3705C26.4423 15.3064 26.4871 15.2494 26.5417 15.2027C26.5963 15.1561 26.6596 15.1208 26.728 15.0989C26.7964 15.0771 26.8685 15.069 26.94 15.0753C27.0115 15.0816 27.0811 15.1021 27.1446 15.1355C27.2082 15.169 27.2644 15.2148 27.31 15.2702C27.3557 15.3257 27.3898 15.3897 27.4104 15.4584C27.4311 15.5272 27.4378 15.5994 27.4302 15.6708L26.1935 29.7935C26.1816 29.9281 26.1197 30.0534 26.0201 30.1446C25.9204 30.2359 25.7902 30.2865 25.6551 30.2865V30.2865Z" fill="black" fill-opacity="0.9"/>
<path d="M20 30.2865C19.8567 30.2865 19.7192 30.2295 19.6178 30.1281C19.5164 30.0268 19.4595 29.8893 19.4595 29.7459V15.6216C19.4595 15.4782 19.5164 15.3407 19.6178 15.2394C19.7192 15.138 19.8567 15.0811 20 15.0811C20.1434 15.0811 20.2809 15.138 20.3822 15.2394C20.4836 15.3407 20.5406 15.4782 20.5406 15.6216V29.7459C20.5406 29.8893 20.4836 30.0268 20.3822 30.1281C20.2809 30.2295 20.1434 30.2865 20 30.2865Z" fill="black" fill-opacity="0.9"/>
<path d="M14.3448 30.2865C14.2092 30.287 14.0784 30.2365 13.9783 30.1451C13.8782 30.0537 13.8161 29.928 13.8043 29.793L12.5697 15.6686C12.5621 15.5972 12.5688 15.525 12.5895 15.4562C12.6101 15.3875 12.6442 15.3235 12.6899 15.268C12.7355 15.2126 12.7917 15.1668 12.8553 15.1333C12.9188 15.0999 12.9884 15.0794 13.0599 15.0731C13.1314 15.0668 13.2035 15.0749 13.2719 15.0967C13.3403 15.1186 13.4036 15.1539 13.4582 15.2005C13.5128 15.2472 13.5576 15.3042 13.5899 15.3684C13.6222 15.4325 13.6414 15.5024 13.6464 15.574L14.8837 29.6989C14.8962 29.8417 14.8514 29.9836 14.7593 30.0933C14.6671 30.2031 14.5352 30.2718 14.3924 30.2843C14.3783 30.2859 14.3605 30.2865 14.3448 30.2865V30.2865Z" fill="black" fill-opacity="0.9"/>
</svg>
