<svg width="38" height="38" viewBox="0 0 38 38" fill="none" xmlns="http://www.w3.org/2000/svg">
<path d="M18.375 25.25H17.125V26.5H18.375V25.25Z" fill="black" fill-opacity="0.9"/>
<path d="M37.4413 10.9613L32.7501 8.21125V4H33.3751C33.5408 4 33.6998 3.93415 33.817 3.81694C33.9342 3.69973 34.0001 3.54076 34.0001 3.375V0.875C34.0001 0.70924 33.9342 0.550268 33.817 0.433058C33.6998 0.315848 33.5408 0.25 33.3751 0.25H27.1251C26.9593 0.25 26.8003 0.315848 26.6831 0.433058C26.5659 0.550268 26.5001 0.70924 26.5001 0.875V3.375C26.5001 3.54076 26.5659 3.69973 26.6831 3.81694C26.8003 3.93415 26.9593 4 27.1251 4H27.7501V5.28L19.3163 0.33625C19.2204 0.279992 19.1112 0.250333 19.0001 0.250333C18.8889 0.250333 18.7797 0.279992 18.6838 0.33625L0.558804 10.9613C0.464858 11.0164 0.386946 11.0951 0.332789 11.1896C0.278633 11.2841 0.250112 11.3911 0.250054 11.5V14.625C0.250112 14.7351 0.279228 14.8431 0.334456 14.9383C0.389685 15.0335 0.469068 15.1124 0.564579 15.1671C0.66009 15.2218 0.768343 15.2502 0.878391 15.2497C0.988439 15.2491 1.09638 15.2194 1.1913 15.1637L2.75005 14.25V30.5975C2.37129 30.8152 2.05643 31.1287 1.83704 31.5065C1.61765 31.8843 1.50143 32.3131 1.50005 32.75C1.50002 32.8604 1.50753 32.9706 1.52255 33.08C1.04123 33.3505 0.663239 33.7731 0.44779 34.2814C0.232341 34.7898 0.191606 35.3553 0.331966 35.8893C0.472326 36.4233 0.785852 36.8956 1.22343 37.2323C1.66101 37.5691 2.19792 37.7511 2.75005 37.75H35.2501C35.8022 37.7511 36.3391 37.5691 36.7767 37.2323C37.2143 36.8956 37.5278 36.4233 37.6681 35.8893C37.8085 35.3553 37.7678 34.7898 37.5523 34.2814C37.3369 33.7731 36.9589 33.3505 36.4776 33.08C36.4926 32.9706 36.5001 32.8604 36.5001 32.75C36.4987 32.3131 36.3825 31.8843 36.1631 31.5065C35.9437 31.1287 35.6288 30.8152 35.2501 30.5975V14.25L36.8088 15.1637C36.9037 15.2194 37.0117 15.2491 37.1217 15.2497C37.2318 15.2502 37.34 15.2218 37.4355 15.1671C37.531 15.1124 37.6104 15.0335 37.6656 14.9383C37.7209 14.8431 37.75 14.7351 37.7501 14.625V11.5C37.75 11.3911 37.7215 11.2841 37.6673 11.1896C37.6132 11.0951 37.5352 11.0164 37.4413 10.9613ZM27.7501 1.5H32.7501V2.75H27.7501V1.5ZM29.0001 4H31.5001V7.47812L29.0001 6.0125V4ZM2.75005 36.5C2.44757 36.5004 2.15526 36.3908 1.92763 36.1916C1.7 35.9924 1.55259 35.7172 1.51289 35.4173C1.47319 35.1175 1.5439 34.8134 1.71185 34.5618C1.8798 34.3102 2.13351 34.1283 2.42568 34.05C2.51084 34.0269 2.59015 33.986 2.65837 33.9301C2.7266 33.8741 2.7822 33.8043 2.82153 33.7253C2.86085 33.6463 2.883 33.5599 2.88651 33.4717C2.89003 33.3835 2.87483 33.2956 2.84193 33.2138C2.77797 33.0561 2.747 32.887 2.75092 32.7168C2.75485 32.5467 2.79359 32.3792 2.86475 32.2246C2.93591 32.0701 3.03798 31.9317 3.16468 31.8181C3.29137 31.7045 3.43999 31.6181 3.60138 31.5642C3.76276 31.5102 3.93349 31.4899 4.10302 31.5045C4.27256 31.5191 4.4373 31.5683 4.5871 31.649C4.7369 31.7297 4.86857 31.8403 4.97399 31.9738C5.07941 32.1074 5.15635 32.2612 5.20005 32.4256C5.22316 32.5108 5.26404 32.5901 5.32 32.6583C5.37597 32.7265 5.44574 32.7822 5.52474 32.8215C5.60374 32.8608 5.69016 32.8829 5.77834 32.8865C5.86651 32.89 5.95443 32.8748 6.0363 32.8419C6.19974 32.7786 6.37462 32.7502 6.5497 32.7585C6.72477 32.7668 6.89617 32.8117 7.05287 32.8902C7.20957 32.9687 7.3481 33.0792 7.45956 33.2144C7.57102 33.3497 7.65294 33.5068 7.70005 33.6756C7.72316 33.7608 7.76404 33.8401 7.82 33.9083C7.87597 33.9765 7.94574 34.0322 8.02474 34.0715C8.10374 34.1108 8.19016 34.1329 8.27834 34.1365C8.36651 34.14 8.45443 34.1248 8.5363 34.0919C8.70747 34.0224 8.89191 33.9917 9.07637 34.002C9.26082 34.0123 9.4407 34.0633 9.60305 34.1515C9.76541 34.2396 9.90621 34.3627 10.0153 34.5117C10.1244 34.6608 10.1991 34.8322 10.2341 35.0136C10.269 35.195 10.2633 35.3819 10.2174 35.5609C10.1714 35.7398 10.0864 35.9063 9.96837 36.0485C9.85036 36.1906 9.70232 36.3048 9.53488 36.3829C9.36745 36.461 9.18479 36.501 9.00005 36.5H2.75005ZM11.5001 35.25H26.5001C26.5026 35.6902 26.6226 36.1217 26.8476 36.5H11.1526C11.3775 36.1217 11.4975 35.6902 11.5001 35.25V35.25ZM22.1251 31.5H15.8751V20.25H22.1251V31.5ZM23.3751 32.75V34H14.6251V32.75H23.3751ZM35.5744 34.05C35.8666 34.1283 36.1203 34.3102 36.2883 34.5618C36.4562 34.8134 36.5269 35.1175 36.4872 35.4173C36.4475 35.7172 36.3001 35.9924 36.0725 36.1916C35.8448 36.3908 35.5525 36.5004 35.2501 36.5H29.0001C28.8153 36.501 28.6327 36.461 28.4652 36.3829C28.2978 36.3048 28.1497 36.1906 28.0317 36.0485C27.9137 35.9063 27.8287 35.7398 27.7827 35.5609C27.7368 35.3819 27.7311 35.195 27.766 35.0136C27.801 34.8322 27.8757 34.6608 27.9848 34.5117C28.0939 34.3627 28.2347 34.2396 28.3971 34.1515C28.5594 34.0633 28.7393 34.0123 28.9237 34.002C29.1082 33.9917 29.2926 34.0224 29.4638 34.0919C29.5457 34.1248 29.6336 34.14 29.7218 34.1365C29.8099 34.1329 29.8964 34.1108 29.9754 34.0715C30.0544 34.0322 30.1241 33.9765 30.1801 33.9083C30.2361 33.8401 30.2769 33.7608 30.3001 33.6756C30.3471 33.5067 30.429 33.3496 30.5404 33.2143C30.6518 33.079 30.7904 32.9685 30.9471 32.8899C31.1038 32.8114 31.2753 32.7665 31.4504 32.7583C31.6255 32.75 31.8004 32.7785 31.9638 32.8419C32.0457 32.8748 32.1336 32.89 32.2218 32.8865C32.3099 32.8829 32.3964 32.8608 32.4754 32.8215C32.5544 32.7822 32.6241 32.7265 32.6801 32.6583C32.7361 32.5901 32.7769 32.5108 32.8001 32.4256C32.8438 32.2612 32.9207 32.1074 33.0261 31.9738C33.1315 31.8403 33.2632 31.7297 33.413 31.649C33.5628 31.5683 33.7276 31.5191 33.8971 31.5045C34.0666 31.4899 34.2373 31.5102 34.3987 31.5642C34.5601 31.6181 34.7087 31.7045 34.8354 31.8181C34.9621 31.9317 35.0642 32.0701 35.1354 32.2246C35.2065 32.3792 35.2453 32.5467 35.2492 32.7168C35.2531 32.887 35.2221 33.0561 35.1582 33.2138C35.1253 33.2956 35.1101 33.3835 35.1136 33.4717C35.1171 33.5599 35.1393 33.6463 35.1786 33.7253C35.2179 33.8043 35.2735 33.8741 35.3417 33.9301C35.41 33.986 35.4893 34.0269 35.5744 34.05ZM34.0001 30.25C33.5582 30.2514 33.1245 30.3699 32.7433 30.5934C32.3622 30.817 32.047 31.1375 31.8301 31.5225C31.3363 31.4592 30.8349 31.5443 30.3897 31.7669C29.9445 31.9895 29.5756 32.3395 29.3301 32.7725C29.2207 32.7575 29.1104 32.75 29.0001 32.75C28.5632 32.7514 28.1343 32.8676 27.7565 33.087C27.3788 33.3064 27.0653 33.6212 26.8476 34H24.6251V32.125C24.6251 31.9592 24.5592 31.8003 24.442 31.6831C24.3248 31.5658 24.1658 31.5 24.0001 31.5H23.3751V19.625C23.3751 19.4592 23.3092 19.3003 23.192 19.1831C23.0748 19.0658 22.9158 19 22.7501 19H15.2501C15.0843 19 14.9253 19.0658 14.8081 19.1831C14.6909 19.3003 14.6251 19.4592 14.6251 19.625V31.5H14.0001C13.8343 31.5 13.6753 31.5658 13.5581 31.6831C13.4409 31.8003 13.3751 31.9592 13.3751 32.125V34H11.1526C10.9348 33.6212 10.6214 33.3064 10.2436 33.087C9.86576 32.8676 9.43693 32.7514 9.00005 32.75C8.88967 32.75 8.77941 32.7575 8.67005 32.7725C8.42422 32.3398 8.05529 31.9899 7.61015 31.7673C7.165 31.5447 6.66374 31.4595 6.17005 31.5225C5.95308 31.1375 5.63795 30.817 5.25677 30.5934C4.87558 30.3699 4.44195 30.2514 4.00005 30.25V13.5175L19.0001 4.72438L34.0001 13.5175V30.25ZM35.1619 12.75L19.3163 3.46125C19.2204 3.40499 19.1112 3.37533 19.0001 3.37533C18.8889 3.37533 18.7797 3.40499 18.6838 3.46125L2.83818 12.75L2.75005 12.8013L1.50005 13.5344V11.8581L19.0001 1.59937L36.5001 11.8581V13.5344L35.2501 12.8013L35.1619 12.75Z" fill="black" fill-opacity="0.9"/>
<path d="M12.9846 0.657929L4.23633 5.78992L4.8685 6.86755L13.6168 1.73557L12.9846 0.657929Z" fill="black" fill-opacity="0.9"/>
<path d="M2.8754 6.58553L1.80908 7.21106L2.44125 8.2887L3.50757 7.66317L2.8754 6.58553Z" fill="black" fill-opacity="0.9"/>
<path d="M15.25 12.75V15.875C15.25 16.0408 15.3158 16.1997 15.4331 16.3169C15.5503 16.4342 15.7092 16.5 15.875 16.5H22.125C22.2908 16.5 22.4497 16.4342 22.5669 16.3169C22.6842 16.1997 22.75 16.0408 22.75 15.875V12.75C22.75 11.7554 22.3549 10.8016 21.6517 10.0983C20.9484 9.39509 19.9946 9 19 9C18.0054 9 17.0516 9.39509 16.3483 10.0983C15.6451 10.8016 15.25 11.7554 15.25 12.75ZM18.375 10.3388V12.125H16.5888C16.7005 11.6952 16.925 11.3031 17.239 10.989C17.5531 10.675 17.9452 10.4505 18.375 10.3388V10.3388ZM16.5 13.375H18.375V15.25H16.5V13.375ZM19.625 15.25V13.375H21.5V15.25H19.625ZM21.4113 12.125H19.625V10.3388C20.0548 10.4505 20.4469 10.675 20.761 10.989C21.075 11.3031 21.2995 11.6952 21.4113 12.125V12.125Z" fill="black" fill-opacity="0.9"/>
<path d="M25.875 26.5H32.125C32.2908 26.5 32.4497 26.4342 32.5669 26.3169C32.6842 26.1997 32.75 26.0408 32.75 25.875V19.625C32.75 19.4592 32.6842 19.3003 32.5669 19.1831C32.4497 19.0658 32.2908 19 32.125 19H25.875C25.7092 19 25.5503 19.0658 25.4331 19.1831C25.3158 19.3003 25.25 19.4592 25.25 19.625V25.875C25.25 26.0408 25.3158 26.1997 25.4331 26.3169C25.5503 26.4342 25.7092 26.5 25.875 26.5ZM26.5 25.25V24H31.5V25.25H26.5ZM31.5 20.25V22.75H26.5V20.25H31.5Z" fill="black" fill-opacity="0.9"/>
<path d="M12.125 19H5.875C5.70924 19 5.55027 19.0658 5.43306 19.1831C5.31585 19.3003 5.25 19.4592 5.25 19.625V25.875C5.25 26.0408 5.31585 26.1997 5.43306 26.3169C5.55027 26.4342 5.70924 26.5 5.875 26.5H12.125C12.2908 26.5 12.4497 26.4342 12.5669 26.3169C12.6842 26.1997 12.75 26.0408 12.75 25.875V19.625C12.75 19.4592 12.6842 19.3003 12.5669 19.1831C12.4497 19.0658 12.2908 19 12.125 19V19ZM11.5 20.25V22.75H6.5V20.25H11.5ZM6.5 25.25V24H11.5V25.25H6.5Z" fill="black" fill-opacity="0.9"/>
<path d="M37.75 19H36.5V27.75H37.75V19Z" fill="black" fill-opacity="0.9"/>
</svg>
