<svg width="40" height="36" viewBox="0 0 40 36" fill="none" xmlns="http://www.w3.org/2000/svg">
<path d="M15.4297 6.35938C15.4297 6.03578 15.1673 5.77344 14.8438 5.77344H10.625C10.3014 5.77344 10.0391 6.03578 10.0391 6.35938V10.2656C10.0391 10.5892 10.3014 10.8516 10.625 10.8516H14.8438C15.1673 10.8516 15.4297 10.5892 15.4297 10.2656V6.35938ZM14.2578 9.67969H11.2109V6.94531H14.2578V9.67969Z" fill="black" fill-opacity="0.9"/>
<path d="M29.9609 6.35938C29.9609 6.03578 29.6986 5.77344 29.375 5.77344H25.1562C24.8327 5.77344 24.5703 6.03578 24.5703 6.35938V10.2656C24.5703 10.5892 24.8327 10.8516 25.1562 10.8516H29.375C29.6986 10.8516 29.9609 10.5892 29.9609 10.2656V6.35938ZM28.7891 9.67969H25.7422V6.94531H28.7891V9.67969Z" fill="black" fill-opacity="0.9"/>
<path d="M22.6953 6.35938C22.6953 6.03578 22.433 5.77344 22.1094 5.77344H17.8906C17.567 5.77344 17.3047 6.03578 17.3047 6.35938V10.2656C17.3047 10.5892 17.567 10.8516 17.8906 10.8516H22.1094C22.433 10.8516 22.6953 10.5892 22.6953 10.2656V6.35938ZM21.5234 9.67969H18.4766V6.94531H21.5234V9.67969Z" fill="black" fill-opacity="0.9"/>
<path d="M15.4297 13.0781C15.4297 12.7545 15.1673 12.4922 14.8438 12.4922H10.625C10.3014 12.4922 10.0391 12.7545 10.0391 13.0781V16.9844C10.0391 17.308 10.3014 17.5703 10.625 17.5703H14.8438C15.1673 17.5703 15.4297 17.308 15.4297 16.9844V13.0781ZM14.2578 16.3984H11.2109V13.6641H14.2578V16.3984Z" fill="black" fill-opacity="0.9"/>
<path d="M29.9609 13.0781C29.9609 12.7545 29.6986 12.4922 29.375 12.4922H25.1562C24.8327 12.4922 24.5703 12.7545 24.5703 13.0781V16.9844C24.5703 17.308 24.8327 17.5703 25.1562 17.5703H29.375C29.6986 17.5703 29.9609 17.308 29.9609 16.9844V13.0781ZM28.7891 16.3984H25.7422V13.6641H28.7891V16.3984Z" fill="black" fill-opacity="0.9"/>
<path d="M22.6953 13.0781C22.6953 12.7545 22.433 12.4922 22.1094 12.4922H17.8906C17.567 12.4922 17.3047 12.7545 17.3047 13.0781V16.9844C17.3047 17.308 17.567 17.5703 17.8906 17.5703H22.1094C22.433 17.5703 22.6953 17.308 22.6953 16.9844V13.0781ZM21.5234 16.3984H18.4766V13.6641H21.5234V16.3984Z" fill="black" fill-opacity="0.9"/>
<path d="M14.8438 19.2891H10.625C10.3014 19.2891 10.0391 19.5514 10.0391 19.875V23.7812C10.0391 24.1048 10.3014 24.3672 10.625 24.3672H14.8438C15.1673 24.3672 15.4297 24.1048 15.4297 23.7812V19.875C15.4297 19.5514 15.1673 19.2891 14.8438 19.2891ZM14.2578 23.1953H11.2109V20.4609H14.2578V23.1953Z" fill="black" fill-opacity="0.9"/>
<path d="M29.375 19.2891H25.1562C24.8327 19.2891 24.5703 19.5514 24.5703 19.875V23.7812C24.5703 24.1048 24.8327 24.3672 25.1562 24.3672H29.375C29.6986 24.3672 29.9609 24.1048 29.9609 23.7812V19.875C29.9609 19.5514 29.6986 19.2891 29.375 19.2891ZM28.7891 23.1953H25.7422V20.4609H28.7891V23.1953Z" fill="black" fill-opacity="0.9"/>
<path d="M22.1094 19.2891H17.8906C17.567 19.2891 17.3047 19.5514 17.3047 19.875V23.7812C17.3047 24.1048 17.567 24.3672 17.8906 24.3672H22.1094C22.433 24.3672 22.6953 24.1048 22.6953 23.7812V19.875C22.6953 19.5514 22.433 19.2891 22.1094 19.2891ZM21.5234 23.1953H18.4766V20.4609H21.5234V23.1953Z" fill="black" fill-opacity="0.9"/>
<path d="M38.1641 32.0234H32.8516V3.23438C32.8516 2.91078 32.5892 2.64844 32.2656 2.64844H30.0301C29.7065 2.64844 29.4441 2.91078 29.4441 3.23438C29.4441 3.55797 29.7065 3.82031 30.0301 3.82031H31.6797V32.0234H27.6953V26.3594C27.6953 26.0358 27.433 25.7734 27.1094 25.7734H23.143C22.8195 25.7734 22.5571 26.0358 22.5571 26.3594C22.5571 26.683 22.8195 26.9453 23.143 26.9453H23.8672V32.0234H16.1328V26.9453H20.619C20.9426 26.9453 21.2049 26.683 21.2049 26.3594C21.2049 26.0358 20.9426 25.7734 20.619 25.7734H12.8906C12.567 25.7734 12.3047 26.0358 12.3047 26.3594V32.0234H8.32031V28.3105C8.32031 27.9869 8.05797 27.7245 7.73438 27.7245C7.41078 27.7245 7.14844 27.9869 7.14844 28.3105V32.0234H1.83594C0.823594 32.0234 0 32.847 0 33.8594C0 34.8717 0.823594 35.6953 1.83594 35.6953H38.1641C39.1764 35.6953 40 34.8717 40 33.8594C40 32.847 39.1764 32.0234 38.1641 32.0234ZM25.0391 26.9453H26.5234V32.0234H25.0391V26.9453ZM13.4766 26.9453H14.9609V32.0234H13.4766V26.9453ZM38.1641 34.5234H1.83594C1.46977 34.5234 1.17188 34.2255 1.17188 33.8594C1.17188 33.4932 1.46977 33.1953 1.83594 33.1953H38.1641C38.5302 33.1953 38.8281 33.4932 38.8281 33.8594C38.8281 34.2255 38.5302 34.5234 38.1641 34.5234Z" fill="black" fill-opacity="0.9"/>
<path d="M7.73438 26.4125C8.05797 26.4125 8.32031 26.1502 8.32031 25.8266V3.82031H27.4339C27.7575 3.82031 28.0198 3.55797 28.0198 3.23438C28.0198 2.91078 27.7575 2.64844 27.4339 2.64844H15.5859V0.890625C15.5859 0.567031 15.3236 0.304688 15 0.304688H10.3125C9.98891 0.304688 9.72656 0.567031 9.72656 0.890625V2.64844H7.73438C7.41078 2.64844 7.14844 2.91078 7.14844 3.23438V25.8266C7.14844 26.1502 7.41078 26.4125 7.73438 26.4125ZM10.8984 1.47656H14.4141V2.64844H10.8984V1.47656Z" fill="black" fill-opacity="0.9"/>
</svg>
