<svg width="40" height="36" viewBox="0 0 40 36" fill="none" xmlns="http://www.w3.org/2000/svg">
<path d="M38.75 14.25H36.875V6.125C36.875 5.95924 36.8092 5.80027 36.6919 5.68306C36.5747 5.56585 36.4158 5.5 36.25 5.5H28.75C28.5842 5.5 28.4253 5.56585 28.3081 5.68306C28.1908 5.80027 28.125 5.95924 28.125 6.125V14.25H16.7383L16.4258 13H20.9375C21.5175 12.9994 22.0735 12.7687 22.4836 12.3586C22.8937 11.9485 23.1244 11.3925 23.125 10.8125V2.6875C23.1244 2.10754 22.8937 1.55151 22.4836 1.14141C22.0735 0.731315 21.5175 0.500641 20.9375 0.5H5.3125C4.73254 0.500641 4.17651 0.731315 3.76641 1.14141C3.35631 1.55151 3.12564 2.10754 3.125 2.6875V10.8125C3.12564 11.3925 3.35631 11.9485 3.76641 12.3586C4.17651 12.7687 4.73254 12.9994 5.3125 13H9.82422L9.51172 14.25H1.25C1.08424 14.25 0.925268 14.3158 0.808058 14.4331C0.690848 14.5503 0.625 14.7092 0.625 14.875V34.875C0.625 35.0408 0.690848 35.1997 0.808058 35.3169C0.925268 35.4342 1.08424 35.5 1.25 35.5H3.125C3.29076 35.5 3.44973 35.4342 3.56694 35.3169C3.68415 35.1997 3.75 35.0408 3.75 34.875V23H23.125V34.875C23.125 35.0408 23.1908 35.1997 23.3081 35.3169C23.4253 35.4342 23.5842 35.5 23.75 35.5H25.625C25.7908 35.5 25.9497 35.4342 26.0669 35.3169C26.1842 35.1997 26.25 35.0408 26.25 34.875V33H36.25V34.875C36.25 35.0408 36.3158 35.1997 36.4331 35.3169C36.5503 35.4342 36.7092 35.5 36.875 35.5H38.75C38.9158 35.5 39.0747 35.4342 39.1919 35.3169C39.3092 35.1997 39.375 35.0408 39.375 34.875V14.875C39.375 14.7092 39.3092 14.5503 39.1919 14.4331C39.0747 14.3158 38.9158 14.25 38.75 14.25ZM33.125 6.75H35.625V14.25H33.125V6.75ZM29.375 6.75H31.875V14.25H29.375V6.75ZM4.375 2.6875C4.37521 2.43892 4.47405 2.20059 4.64982 2.02482C4.82559 1.84905 5.06392 1.75021 5.3125 1.75H20.9375C21.1861 1.75021 21.4244 1.84905 21.6002 2.02482C21.776 2.20059 21.8748 2.43892 21.875 2.6875V9.875H4.375V2.6875ZM5.3125 11.75C5.11885 11.7496 4.93006 11.6894 4.77201 11.5775C4.61396 11.4656 4.49439 11.3075 4.42969 11.125H21.8203C21.7556 11.3075 21.636 11.4656 21.478 11.5775C21.3199 11.6894 21.1311 11.7496 20.9375 11.75H5.3125ZM15.4492 14.25H10.8008L11.1133 13H15.1367L15.4492 14.25ZM2.5 34.25H1.875V18H2.5V34.25ZM23.125 21.75H3.75V18H23.125V21.75ZM25 34.25H24.375V18H25V34.25ZM36.25 31.75H26.25V28H36.25V31.75ZM36.25 26.75H26.25V23H36.25V26.75ZM36.25 21.75H26.25V18H36.25V21.75ZM38.125 34.25H37.5V18H38.125V34.25ZM38.125 16.75H1.875V15.5H38.125V16.75Z" fill="black" fill-opacity="0.9"/>
<path d="M29.375 20.5H33.125C33.2908 20.5 33.4497 20.4342 33.5669 20.3169C33.6842 20.1997 33.75 20.0408 33.75 19.875C33.75 19.7092 33.6842 19.5503 33.5669 19.4331C33.4497 19.3158 33.2908 19.25 33.125 19.25H29.375C29.2092 19.25 29.0503 19.3158 28.9331 19.4331C28.8158 19.5503 28.75 19.7092 28.75 19.875C28.75 20.0408 28.8158 20.1997 28.9331 20.3169C29.0503 20.4342 29.2092 20.5 29.375 20.5Z" fill="black" fill-opacity="0.9"/>
<path d="M33.125 24.25H29.375C29.2092 24.25 29.0503 24.3158 28.9331 24.4331C28.8158 24.5503 28.75 24.7092 28.75 24.875C28.75 25.0408 28.8158 25.1997 28.9331 25.3169C29.0503 25.4342 29.2092 25.5 29.375 25.5H33.125C33.2908 25.5 33.4497 25.4342 33.5669 25.3169C33.6842 25.1997 33.75 25.0408 33.75 24.875C33.75 24.7092 33.6842 24.5503 33.5669 24.4331C33.4497 24.3158 33.2908 24.25 33.125 24.25Z" fill="black" fill-opacity="0.9"/>
<path d="M33.125 29.25H29.375C29.2092 29.25 29.0503 29.3158 28.9331 29.4331C28.8158 29.5503 28.75 29.7092 28.75 29.875C28.75 30.0408 28.8158 30.1997 28.9331 30.3169C29.0503 30.4342 29.2092 30.5 29.375 30.5H33.125C33.2908 30.5 33.4497 30.4342 33.5669 30.3169C33.6842 30.1997 33.75 30.0408 33.75 29.875C33.75 29.7092 33.6842 29.5503 33.5669 29.4331C33.4497 29.3158 33.2908 29.25 33.125 29.25Z" fill="black" fill-opacity="0.9"/>
<path d="M15 19.25H11.25C11.0842 19.25 10.9253 19.3158 10.8081 19.4331C10.6908 19.5503 10.625 19.7092 10.625 19.875C10.625 20.0408 10.6908 20.1997 10.8081 20.3169C10.9253 20.4342 11.0842 20.5 11.25 20.5H15C15.1658 20.5 15.3247 20.4342 15.4419 20.3169C15.5592 20.1997 15.625 20.0408 15.625 19.875C15.625 19.7092 15.5592 19.5503 15.4419 19.4331C15.3247 19.3158 15.1658 19.25 15 19.25Z" fill="black" fill-opacity="0.9"/>
</svg>
