<svg width="40" height="40" viewBox="0 0 40 40" fill="none" xmlns="http://www.w3.org/2000/svg">
<path d="M38.568 1.43328C37.6436 0.508984 36.4147 0 35.1076 0C33.8005 0 32.5716 0.509063 31.6473 1.43328L3.1971 29.8835C3.18023 29.9004 3.16468 29.918 3.15015 29.9362C3.14656 29.9408 3.14343 29.9455 3.13992 29.9502C3.12906 29.9645 3.11867 29.979 3.10921 29.994C3.1057 29.9995 3.10265 30.0052 3.09937 30.0107C3.09062 30.0255 3.08242 30.0405 3.07492 30.0559C3.07203 30.0618 3.06921 30.0679 3.06656 30.0739C3.05953 30.0897 3.0532 30.1055 3.04749 30.1217C3.04617 30.1255 3.04429 30.1291 3.04304 30.133L0.0339786 39.1598C-0.0424277 39.3892 0.0171817 39.642 0.188197 39.813C0.309838 39.9347 0.472963 40 0.639604 40C0.707104 40 0.775229 39.9893 0.8414 39.9673L9.86828 36.9584C9.87242 36.957 9.87624 36.9549 9.88046 36.9535C9.89601 36.948 9.91132 36.9419 9.92656 36.9352C9.93312 36.9323 9.9396 36.9293 9.94601 36.9262C9.96085 36.9189 9.97538 36.911 9.98976 36.9025C9.9957 36.899 10.0018 36.8956 10.0077 36.892C10.0223 36.8827 10.0364 36.8726 10.0504 36.862C10.0553 36.8583 10.0605 36.855 10.0652 36.8512C10.0834 36.8366 10.1011 36.8211 10.1179 36.8043L38.568 8.35414C40.4759 6.44586 40.4759 3.34125 38.568 1.43328ZM1.64867 38.3524L2.12195 36.9326L3.06859 37.8791L1.64867 38.3524ZM4.42265 37.4278L2.57335 35.5785L3.92742 31.5165L8.48476 36.0737L4.42265 37.4278ZM9.6664 35.4501L7.56007 33.3438L18.3248 22.5791C18.5741 22.3298 18.5741 21.9256 18.3248 21.6764C18.0755 21.4271 17.6714 21.4271 17.4221 21.6764L6.65749 32.441L4.55124 30.3348L27.8861 6.99992L29.9924 9.10625L19.2276 19.8709C18.9783 20.1202 18.9783 20.5244 19.2276 20.7736C19.3523 20.8983 19.5155 20.9605 19.679 20.9605C19.8423 20.9605 20.0057 20.8983 20.1304 20.7736L30.8951 10.0089L33.0013 12.1152L9.6664 35.4501ZM33.904 11.2124L31.3466 8.65508C31.3462 8.65469 28.7887 6.09719 28.7887 6.09719L30.2932 4.59273L35.4084 9.70797L33.904 11.2124ZM37.6652 7.45125L36.3112 8.80523L31.196 3.69L32.5501 2.33594C33.233 1.65289 34.1414 1.27664 35.1076 1.27664C36.0738 1.27664 36.982 1.65289 37.6652 2.33602C38.3483 3.01914 38.7245 3.9275 38.7245 4.89359C38.7245 5.85969 38.3484 6.76812 37.6652 7.45125Z" fill="black" fill-opacity="0.9"/>
</svg>
