<svg width="40" height="40" viewBox="0 0 40 40" fill="none" xmlns="http://www.w3.org/2000/svg">
<path d="M34.2365 28.4746H28.8127V37.2882H34.2365V28.4746ZM32.8805 35.9322H30.1687V29.8305H32.8805V35.9322Z" fill="black" fill-opacity="0.9"/>
<path d="M22.0332 22.3729H5.76205C4.63874 22.3729 3.72815 23.2835 3.72815 24.4068V37.2882H24.0671V24.4068C24.0671 23.2835 23.1565 22.3729 22.0332 22.3729ZM22.7112 35.9322H5.08408V27.1187H22.7112V35.9322ZM22.7112 25.7628H5.08408V24.4068C5.08408 24.0324 5.38764 23.7289 5.76205 23.7289H22.0332C22.4076 23.7289 22.7112 24.0324 22.7112 24.4068V25.7628Z" fill="black" fill-opacity="0.9"/>
<path d="M39.6135 9.26034C39.6067 9.24136 39.5999 9.22305 39.5918 9.20475C39.5837 9.18644 39.5823 9.17559 39.5749 9.16271L36.2704 3.21424V0.677966C36.2704 0.303559 35.9669 0 35.5925 0H3.72807C3.35367 0 3.05011 0.303559 3.05011 0.677966V3.2461L0.396549 9.21627V9.22237C0.396549 9.22983 0.392481 9.23864 0.389091 9.2461C0.362735 9.31525 0.348074 9.38839 0.345701 9.46237C0.345701 9.47254 0.3396 9.48136 0.3396 9.49153V40H39.6603V9.49153C39.6603 9.48746 39.6603 9.48339 39.6603 9.47932C39.6572 9.40424 39.6414 9.33017 39.6135 9.26034ZM37.8298 8.81356H29.9796L28.3979 4.0678H35.1938L37.8298 8.81356ZM28.8128 10.1695V16.9492C28.8128 18.4469 27.5987 19.661 26.101 19.661H23.3891C21.8914 19.661 20.6772 18.4469 20.6772 16.9492V16.2712V10.1695H28.8128ZM20.6772 8.81356V4.0678H26.9681L28.5498 8.81356H20.6772ZM4.40604 1.35593H34.9145V2.71186H4.40604V1.35593V1.35593ZM11.4488 8.81356L13.0304 4.0678H19.3213V8.81356H11.4488ZM19.3213 10.1695V16.2712C19.3191 18.1424 17.8027 19.6588 15.9315 19.661H14.5755C12.7043 19.6588 11.1879 18.1424 11.1857 16.2712V10.1695H19.3213ZM4.16875 4.0678H11.6006L10.0189 8.81356H2.0596L4.16875 4.0678ZM1.69418 10.1695H9.82977V16C9.82757 18.021 8.18977 19.6588 6.16875 19.661H5.08401C3.21282 19.6588 1.69638 18.1424 1.69418 16.2712V10.1695V10.1695ZM35.5925 38.6441H27.4569V27.1186H35.5925V38.6441ZM35.5925 25.7627H27.4569V24.9492C27.4569 24.2752 28.0032 23.7288 28.6772 23.7288H34.3721C35.0461 23.7288 35.5925 24.2752 35.5925 24.9492V25.7627V25.7627ZM38.3043 38.6441H36.9484V24.9492C36.9484 23.5264 35.7949 22.3729 34.3721 22.3729H28.6772C27.2544 22.3729 26.101 23.5264 26.101 24.9492V38.6441H1.69418V19.5858C2.58451 20.501 3.80714 21.0173 5.08401 21.0169H6.16875C7.9185 21.0151 9.54053 20.1008 10.4481 18.6047C11.2888 20.0936 12.8656 21.0152 14.5755 21.0169H15.9315C17.4993 21.0158 18.9654 20.2403 19.8488 18.9451C20.5688 20.2237 21.9216 21.0154 23.3891 21.0169H26.101C27.5684 21.0154 28.9213 20.2237 29.6413 18.9451C30.5247 20.2403 31.9908 21.0158 33.5586 21.0169H34.9145C36.1914 21.0173 37.414 20.501 38.3043 19.5858V38.6441V38.6441ZM38.3043 16.2712C38.3021 18.1424 36.7857 19.6588 34.9145 19.661H33.5586C31.6874 19.6588 30.171 18.1424 30.1688 16.2712V10.1695H38.3043V16.2712Z" fill="black" fill-opacity="0.9"/>
</svg>
